<svg width="23" height="16" viewBox="0 0 23 16" fill="none" xmlns="http://www.w3.org/2000/svg">
<path d="M22.8678 4.95081C22.7554 4.81593 22.5875 4.73721 22.4114 4.73721H20.173C19.6206 3.30512 18.901 1.90197 18.083 1.37232C15.2533 -0.457441 7.74773 -0.457441 4.91804 1.37232C4.09946 1.90255 3.38277 3.30744 2.82743 4.73721H0.589005C0.411156 4.73721 0.243907 4.81593 0.132605 4.95081C0.0207127 5.0851 -0.024044 5.26281 0.0124681 5.43357L0.344021 7.01269C0.400556 7.28186 0.642007 7.47404 0.920558 7.47404H1.58366C0.943526 8.19992 0.633173 9.11393 0.629051 10.0285C0.624928 11.1585 1.06131 12.1796 1.85927 12.902C1.86811 12.9095 1.87694 12.9147 1.88518 12.9222V15.1317C1.88518 15.6104 2.28093 16 2.76854 16H4.83324C5.32085 16 5.71659 15.6104 5.71659 15.1317V14.2438H17.2833V15.1317C17.2833 15.6104 17.679 16 18.1666 16H20.2313C20.7178 16 21.1147 15.6104 21.1147 15.1317V12.9656C21.9615 12.2033 22.3661 11.1544 22.3714 10.1073C22.3749 9.1614 22.0504 8.21382 21.3726 7.47288H22.0799C22.3596 7.47288 22.6011 7.2807 22.6564 7.01095L22.9886 5.43241C23.0227 5.26281 22.9797 5.08626 22.8678 4.95081ZM5.88797 2.82235C8.14347 1.36306 14.8564 1.36306 17.1107 2.82235C17.5489 3.10484 18.1124 4.24692 18.6289 5.64543H4.37095C4.88624 4.2475 5.44982 3.10599 5.88797 2.82235ZM3.24614 10.2462C3.24614 9.30264 4.02467 8.53855 4.984 8.53855C5.9445 8.53855 6.72185 9.30264 6.72185 10.2462C6.72185 11.1897 5.9445 11.9544 4.984 11.9544C4.02467 11.9544 3.24614 11.1897 3.24614 10.2462ZM18.0388 11.9544C17.0795 11.9544 16.301 11.1897 16.301 10.2462C16.301 9.30264 17.0795 8.53855 18.0388 8.53855C18.9993 8.53855 19.7767 9.30264 19.7767 10.2462C19.7767 11.1897 18.9982 11.9544 18.0388 11.9544Z" fill="white"/>
</svg>
