<svg width="28" height="20" viewBox="0 0 28 20" fill="none" xmlns="http://www.w3.org/2000/svg">
<path fill-rule="evenodd" clip-rule="evenodd" d="M26.6 8.42102H1.4C0.6272 8.42102 0 9.12839 0 9.99998C0 10.8716 0.6272 11.5789 1.4 11.5789H26.6C27.3728 11.5789 28 10.8716 28 9.99998C28 9.12839 27.3728 8.42102 26.6 8.42102ZM26.6 16.842H1.4C0.6272 16.842 0 17.5494 0 18.421C0 19.2926 0.6272 19.9999 1.4 19.9999H26.6C27.3728 19.9999 28 19.2926 28 18.421C28 17.5494 27.3728 16.842 26.6 16.842ZM1.4 3.15788H26.6C27.3728 3.15788 28 2.45051 28 1.57894C28 0.707365 27.3728 0 26.6 0H1.4C0.6272 0 0 0.707365 0 1.57894C0 2.45051 0.6272 3.15788 1.4 3.15788Z" fill="white"/>
</svg>
