<svg width="24" height="24" viewBox="0 0 24 24" fill="none" xmlns="http://www.w3.org/2000/svg">
<path d="M22.391 5.97645C21.3179 4.13803 19.8623 2.68243 18.0238 1.60938C16.185 0.536388 14.1777 0 12.0004 0C9.82322 0 7.81531 0.536388 5.97684 1.60938C4.13825 2.68227 2.68265 4.13787 1.60955 5.97645C0.536388 7.81515 0 9.82306 0 12C0 14.1771 0.536552 16.1847 1.60938 18.0235C2.68243 19.8619 4.13803 21.3175 5.97662 22.3907C7.81531 23.4636 9.82306 24.0001 12.0001 24.0001C14.1772 24.0001 16.1852 23.4636 18.0238 22.3907C19.8622 21.3179 21.3178 19.8619 22.3908 18.0235C23.4636 16.1849 23.9999 14.177 23.9999 12C24 9.82284 23.4636 7.81487 22.391 5.97645ZM19.3596 16.2656C18.5992 17.5676 17.568 18.5992 16.266 19.3596C14.9639 20.12 13.5421 20.4998 12.0002 20.4998C10.4587 20.4998 9.03673 20.12 7.73453 19.3596C6.4325 18.5991 5.40132 17.5676 4.64093 16.2656C3.88037 14.9635 3.50023 13.5417 3.50023 12C3.50023 10.4583 3.88054 9.0364 4.64093 7.73437C5.40115 6.43234 6.43261 5.40093 7.73453 4.6406C9.03656 3.88015 10.4585 3.50007 12.0002 3.50007C13.542 3.50007 14.9639 3.88015 16.266 4.6406C17.568 5.40099 18.5992 6.43234 19.3596 7.73437C20.12 9.0364 20.5 10.4583 20.5 12C20.5 13.5417 20.12 14.9635 19.3596 16.2656Z" fill="#FFA734"/>
<path d="M13.5003 5.99988H12.5002C12.3541 5.99988 12.2346 6.04689 12.1406 6.14053C12.0473 6.23428 12.0003 6.35397 12.0003 6.49982V12H8.50024C8.35429 12 8.23465 12.0468 8.14085 12.1403C8.04715 12.234 8.00031 12.3538 8.00031 12.4999V13.4999C8.00031 13.6458 8.04715 13.7656 8.14085 13.8593C8.23471 13.9529 8.35456 13.9997 8.50024 13.9997H13.5006C13.6463 13.9997 13.7662 13.9529 13.8596 13.8593C13.9533 13.7656 14.0005 13.6458 14.0005 13.4999V6.49982C14.0005 6.35408 13.9533 6.23444 13.8596 6.14053C13.7661 6.04689 13.6462 5.99988 13.5003 5.99988Z" fill="#FFA734"/>
</svg>
