<svg width="24" height="24" viewBox="0 0 24 24" fill="none" xmlns="http://www.w3.org/2000/svg">
<path d="M21.1875 3.46875H2.8125C1.25922 3.46875 0 4.72797 0 6.28125V6.53119H24V6.28125C24 4.72797 22.7408 3.46875 21.1875 3.46875Z" fill="#FFA734"/>
<path d="M0 17.7931C0 19.3464 1.25922 20.6056 2.8125 20.6056H21.1875C22.7408 20.6056 24 19.3464 24 17.7931V9.34369H0V17.7931ZM17.272 14.0125H19.5313C20.7495 14.0125 21.7407 15.0037 21.7407 16.2219C21.7407 17.4401 20.7495 18.4312 19.5313 18.4312H17.272C16.0536 18.4312 15.0626 17.4401 15.0626 16.2219C15.0626 15.0037 16.0536 14.0125 17.272 14.0125ZM2.96246 14.0125H7.48132C7.86951 14.0125 8.18445 14.3273 8.18445 14.7156C8.18445 15.104 7.86951 15.4188 7.48132 15.4188H2.96246C2.5741 15.4188 2.25934 15.104 2.25934 14.7156C2.25934 14.3273 2.5741 14.0125 2.96246 14.0125ZM2.96246 17.025H9.74066C10.129 17.025 10.4438 17.3397 10.4438 17.7281C10.4438 18.1165 10.129 18.4312 9.74066 18.4312H2.96246C2.5741 18.4312 2.25934 18.1165 2.25934 17.7281C2.25934 17.3397 2.5741 17.025 2.96246 17.025Z" fill="#FFA734"/>
<path d="M17.272 17.025H19.5313C19.9741 17.025 20.3344 16.6648 20.3344 16.2219C20.3344 15.7791 19.9741 15.4188 19.5313 15.4188H17.272C16.829 15.4188 16.4689 15.7791 16.4689 16.2219C16.4689 16.6648 16.829 17.025 17.272 17.025Z" fill="#FFA734"/>
</svg>
