<svg width="24" height="16" viewBox="0 0 24 16" fill="none" xmlns="http://www.w3.org/2000/svg">
<path d="M7.71709 12.5624C6.8859 12.5624 6.20978 13.2386 6.20978 14.0698C6.20978 14.9012 6.8859 15.5774 7.71709 15.5774C8.54845 15.5774 9.22457 14.9012 9.22457 14.0698C9.22457 13.2386 8.54845 12.5624 7.71709 12.5624Z" fill="#FFA734"/>
<path d="M18.9184 12.5624C18.0872 12.5624 17.4111 13.2386 17.4111 14.0698C17.4111 14.9012 18.0872 15.5774 18.9184 15.5774C19.7497 15.5774 20.4259 14.9012 20.4259 14.0698C20.4259 13.2386 19.7497 12.5624 18.9184 12.5624Z" fill="#FFA734"/>
<path d="M22.6886 7.05153L22.6821 5.1321C22.6806 4.6921 22.3236 4.33606 21.8834 4.33606H20.6852L20.0063 7.05153H22.6886Z" fill="#FFA734"/>
<path d="M20.0276 1.39449C20.0802 1.15796 20.0225 0.910445 19.8709 0.721597C19.7193 0.532587 19.4901 0.422607 19.2478 0.422607H6.72889C6.35442 0.422607 6.0303 0.682567 5.94925 1.04806L5.79531 1.74042H4.09317C3.65212 1.74042 3.29446 2.098 3.29446 2.53905C3.29446 2.9801 3.65212 3.33776 4.09317 3.33776H5.44024L5.06319 5.03488H2.11653C1.67531 5.03488 1.31782 5.39262 1.31782 5.83359C1.31782 6.27472 1.67531 6.6323 2.11653 6.6323H4.70828L4.33107 8.32951H0.798707C0.357657 8.32951 0 8.68716 0 9.12821C0 9.56926 0.357657 9.92692 0.798707 9.92692H3.97608L3.31354 12.9083C3.26109 13.1448 3.31863 13.3924 3.47014 13.5813C3.62174 13.7703 3.85091 13.8802 4.09317 13.8802H4.61867C4.71701 12.2562 6.06893 10.9651 7.71709 10.9651C9.36533 10.9651 10.7173 12.2562 10.8157 13.8802H15.82C15.8913 12.7045 16.6198 11.7034 17.6421 11.2404L20.0276 1.39449Z" fill="#FFA734"/>
<path d="M23.8489 8.64068C23.7334 8.48068 23.5642 8.37159 23.3756 8.32941H19.6869L19.0274 10.9676C20.622 11.0229 21.9146 12.2862 22.0162 13.869C22.2982 13.8211 22.5453 13.6233 22.6416 13.3329L23.9595 9.35947C24.0401 9.11591 23.999 8.84868 23.8489 8.64068Z" fill="#FFA734"/>
</svg>
