<svg width="22" height="24" viewBox="0 0 22 24" fill="none" xmlns="http://www.w3.org/2000/svg">
<path d="M4.71429 9.52381L2.93652 7.74603C1.79366 9.26984 1.03175 10.9206 0.90477 12.6984H3.44445C3.57144 11.5556 4.07937 10.5397 4.71429 9.52381ZM3.44445 15.2381H0.90477C1.15874 17.0159 1.79366 18.6667 2.93652 20.1905L4.71429 18.4127C4.07937 17.3968 3.57144 16.381 3.44445 15.2381ZM4.71429 21.9683C6.2381 23.1111 7.8889 23.746 9.66667 24V21.4603C8.52382 21.3333 7.50794 20.8254 6.49207 20.1905L4.71429 21.9683ZM12.2064 3.93651V0L6.49207 5.71429L12.2064 11.4286V6.47619C15.7619 7.11111 18.5556 10.1587 18.5556 13.9683C18.5556 17.7778 15.7619 20.8254 12.2064 21.4603V24C17.1587 23.3651 21.0952 19.0476 21.0952 13.9683C21.0952 8.88889 17.1587 4.57143 12.2064 3.93651Z" fill="#FFA734"/>
</svg>
