<svg xmlns="http://www.w3.org/2000/svg" viewBox="0 0 34 34">
    <path class="cls-1"
          d="M31,11.7A15,15,0,0,0,26.5,5.39h0A15,15,0,0,0,5.39,7.5h0A15,15,0,0,0,7.5,28.61h0a15,15,0,0,0,21.1-2.11h0A15,15,0,0,0,31,11.7Z"/>
    <circle class="cls-1" cx="17" cy="17" r="2.43"/>
    <line class="cls-1" x1="22.43" y1="20.04" x2="20.04" y2="22.43"/>
    <line class="cls-1" x1="20.04" y1="11.57" x2="22.43" y2="13.96"/>
    <line class="cls-1" x1="11.57" y1="13.96" x2="13.96" y2="11.57"/>
    <line class="cls-1" x1="13.96" y1="22.43" x2="11.57" y2="20.04"/>
    <circle class="cls-1" cx="22.84" cy="17" r="0.98"/>
    <circle class="cls-1" cx="17" cy="11.16" r="0.98"/>
    <circle class="cls-1" cx="11.16" cy="17" r="0.98"/>
    <circle class="cls-1" cx="17" cy="22.43" r="0.91"/>
    <line class="cls-1" x1="19.43" y1="2.2" x2="15.5" y2="7.62"/>
    <line class="cls-1" x1="11.7" y1="2.97" x2="11.01" y2="9.63"/>
    <polyline class="cls-1" points="5.39 7.5 5.39 7.51 8.12 13.6 8.12 13.61"/>
    <line class="cls-1" x1="7.62" y1="18.5" x2="2.2" y2="14.57"/>
    <line class="cls-1" x1="9.63" y1="22.99" x2="2.97" y2="22.3"/>
    <polyline class="cls-1" points="7.5 28.61 7.51 28.61 13.6 25.88 13.61 25.88"/>
    <line class="cls-1" x1="18.5" y1="26.38" x2="14.57" y2="31.8"/>
    <line class="cls-1" x1="22.99" y1="24.37" x2="22.3" y2="31.03"/>
    <polyline class="cls-1" points="28.61 26.5 28.61 26.49 25.88 20.4 25.88 20.39"/>
    <line class="cls-1" x1="31.8" y1="19.43" x2="26.38" y2="15.5"/>
    <line class="cls-1" x1="31.03" y1="11.7" x2="24.37" y2="11.01"/>
    <polyline class="cls-1" points="26.5 5.39 26.49 5.39 20.4 8.12 20.39 8.12"/>
    <circle class="cls-1" cx="17" cy="17" r="9.38"/>
</svg>