<svg xmlns="http://www.w3.org/2000/svg" viewBox="0 0 34 34">
    <rect class="cls-1" x="9.18" y="11.14" width="21.51" height="12.45"
          transform="translate(46.09 13.51) rotate(130.55)"/>
    <polyline class="cls-1" points="28.68 10.69 32.26 6.51 28.75 3.51 25.17 7.69"/>
    <path class="cls-1"
          d="M14.23,26.64,11,30.41a1.69,1.69,0,0,1-2.39.18L5.83,28.21l-2.1,2.46L1.15,28.46l3.21-3.75a1.69,1.69,0,0,1,2.39-.18l2.79,2.38,2.11-2.48"/>
    <line class="cls-1" x1="24.21" y1="17.13" x2="21.58" y2="10.67"/>
    <line class="cls-1" x1="21.25" y1="20.59" x2="18.62" y2="14.14"/>
    <line class="cls-1" x1="18.28" y1="24.06" x2="15.65" y2="17.6"/>
    <line class="cls-1" x1="32.85" y1="7.02" x2="28.15" y2="3"/>
</svg>