<svg  xmlns="http://www.w3.org/2000/svg" viewBox="0 0 34 34">

    <path class="cls-1"
          d="M25,27.7H2.69A2.19,2.19,0,0,1,.5,25.51V9.87A2.19,2.19,0,0,1,2.69,7.68H31.31A2.19,2.19,0,0,1,33.5,9.87V20.16A7.55,7.55,0,0,1,26,27.7H25"/>
    <path class="cls-1" d="M6.51,17.45V7.21a2.7,2.7,0,0,1,2.7-2.7h.32"/>
    <rect class="cls-1" x="4.11" y="17.45" width="4.8" height="7.81" transform="translate(13.02 42.71) rotate(-180)"/>
    <rect class="cls-1" x="17" y="4.51" width="7.71" height="3.17" transform="translate(41.71 12.19) rotate(-180)"/>
    <path class="cls-1"
          d="M33.5,14.26c-2.06,0-2.06,1.21-4.12,1.21s-2.07-1.21-4.13-1.21-2.06,1.21-4.12,1.21S19.07,14.26,17,14.26,15,15.47,12.89,15.47s-2.06-1.21-4.13-1.21S6.7,15.47,4.63,15.47,2.57,14.26.5,14.26"/>
</svg>