<svg xmlns="http://www.w3.org/2000/svg" viewBox="0 0 34 34">

    <path class="cls-1"
          d="M18.07,11.92c.76-4.72,2.56-8,4.65-8,2.78,0,5.05,5.86,5.05,13.1S25.5,30.1,22.72,30.1c-2.09,0-3.89-3.31-4.65-8"/>
    <path class="cls-1" d="M18.16,3.9c-2.79,0-5.05,5.86-5.05,13.1s2.26,13.1,5.05,13.1"/>
    <path class="cls-1" d="M22.72,30.1H16.6A13.1,13.1,0,0,1,3.5,17h0A13.1,13.1,0,0,1,16.6,3.9h6.12"/>
    <path class="cls-1"
          d="M24.54,17a5.25,5.25,0,0,1-5.24,5.24,5,5,0,0,1-1.23-.16,31.15,31.15,0,0,1-.4-5.08,31.15,31.15,0,0,1,.4-5.08,5,5,0,0,1,1.23-.16A5.25,5.25,0,0,1,24.54,17Z"/>
    <line class="cls-1" x1="26.45" y1="17" x2="30.5" y2="17"/>
    <line class="cls-1" x1="25.73" y1="13.92" x2="29.56" y2="12.6"/>
    <line class="cls-1" x1="24.45" y1="11.17" x2="27.65" y2="8.69"/>
    <line class="cls-1" x1="25.73" y1="20.08" x2="29.56" y2="21.4"/>
    <line class="cls-1" x1="24.45" y1="22.83" x2="27.65" y2="25.31"/>
</svg>