<svg xmlns="http://www.w3.org/2000/svg" viewBox="0 0 34 34">

    <line class="cls-1" x1="9.06" y1="12.15" x2="9.06" y2="29.88"/>
    <line class="cls-1" x1="11.66" y1="12.73" x2="11.66" y2="30.45"/>
    <line class="cls-1" x1="14.25" y1="13.01" x2="14.25" y2="30.74"/>
    <line class="cls-1" x1="16.85" y1="13.11" x2="16.85" y2="30.83"/>
    <line class="cls-1" x1="19.45" y1="13.03" x2="19.45" y2="30.74"/>
    <line class="cls-1" x1="22.04" y1="12.77" x2="22.04" y2="30.49"/>
    <line class="cls-1" x1="24.64" y1="12.24" x2="24.64" y2="29.97"/>
    <path class="cls-1"
          d="M19.88,1.36c4.43.4,7.68,1.7,7.68,3.26C27.56,6.49,22.83,8,17,8S6.44,6.49,6.44,4.62c0-1.56,3.25-2.86,7.68-3.26"/>
    <path class="cls-1" d="M20.14,4.62c0,.55-1.4,1-3.14,1s-3.14-.45-3.14-1"/>
    <ellipse class="cls-1" cx="17" cy="1.76" rx="3.14" ry="1.01"/>
    <path class="cls-1" d="M27.56,8c0,1.87-4.73,3.39-10.56,3.39S6.44,9.87,6.44,8"/>
    <path class="cls-1" d="M6.44,4.62V29.36c0,1.87,4.73,3.39,10.56,3.39s10.56-1.52,10.56-3.39V4.62"/>
    <line class="cls-1" x1="20.14" y1="4.62" x2="20.14" y2="1.76"/>
    <line class="cls-1" x1="13.86" y1="4.62" x2="13.86" y2="1.76"/>
</svg>