<svg id="Слой_1" data-name="Слой 1" xmlns="http://www.w3.org/2000/svg" viewBox="0 0 34 34"><defs><style>.cls-1{fill:none;stroke:#ffa734;stroke-linecap:round;stroke-linejoin:round;stroke-width:0.7px;}</style></defs><title>Автолампы</title><line class="cls-1" x1="7.11" y1="25.97" x2="26.89" y2="25.97"/><polyline class="cls-1" points="11.52 25.97 11.52 29.83 22.48 29.83 22.48 25.97"/><polyline class="cls-1" points="22.48 22.91 22.48 19.92 11.52 19.92 11.52 22.91"/><polyline class="cls-1" points="24.04 25.97 24.04 22.91 9.96 22.91 9.96 25.97"/><polyline class="cls-1" points="20.98 19.92 20.98 7.16 13.02 7.16 13.02 19.92"/><line class="cls-1" x1="19.63" y1="29.83" x2="19.63" y2="33.5"/><line class="cls-1" x1="14.37" y1="29.83" x2="14.37" y2="33.5"/><polyline class="cls-1" points="17.95 17.41 17.95 14.84 16.21 13.13 16.21 10.38"/><path class="cls-1" d="M21,7.36c0-2.14-1.2-2.43-2.17-3.25A4.75,4.75,0,0,1,18,1.39,1,1,0,0,0,17,.5h0a1,1,0,0,0-1,.89,4.75,4.75,0,0,1-.84,2.72C14.22,4.93,13,5.22,13,7.36"/></svg>