<svg xmlns="http://www.w3.org/2000/svg" viewBox="0 0 34 34">

    <path class="cls-1"
          d="M13.93,15.47l2.66,1.75a5.13,5.13,0,0,0,6.65-1l3.87-4.6a3.09,3.09,0,0,0-.2-4,27.84,27.84,0,0,0-8.23-5.43,3.12,3.12,0,0,0-3.75,1.39Q13.61,6.24,12.24,9A5.12,5.12,0,0,0,13.93,15.47Z"/>
    <path class="cls-1" d="M24.08,9.94a14.56,14.56,0,0,0-6.41-4.22"/>
    <polyline class="cls-1"
              points="17.28 17.69 14.24 22.23 12.89 22.84 12.92 24.22 10.91 27.24 9.76 27.57 9.73 29.01 8.31 31.16 4.87 32 4.24 28.67 6.02 26.05 7.09 25.51 7.14 24.39 8.98 21.54 10.23 20.97 10.25 19.61 13.31 15.06"/>
    <path class="cls-1" d="M24.31,14.91a6.05,6.05,0,1,0-4.13-8.34"/>
</svg>