<svg id="Слой_1" data-name="Слой 1" xmlns="http://www.w3.org/2000/svg" viewBox="0 0 34 34"><defs><style>.cls-1{fill:none;stroke:#ffa734;stroke-linecap:round;stroke-linejoin:round;stroke-width:0.7px;}</style></defs><title>Универсальный товар</title><polyline class="cls-1" points="23.39 12.23 25.41 10.21 31.66 16.46 33 15.12 29.51 9.34 24.87 4.7 24.06 5.51 19.51 2.4 18.52 3.39 22.35 7.21 20.36 9.21"/><polyline class="cls-1" points="13.61 15.96 1 28.57 4.03 31.6 16.64 18.98"/><polygon class="cls-1" points="15.9 18.25 17.63 19.97 22.41 15.19 28.7 19.42 29.64 18.48 22.63 11.48 15.9 18.25"/><polygon class="cls-1" points="14.37 16.71 12.62 14.97 17.5 10.09 15.55 6.36 16.54 5.38 21.12 9.96 14.37 16.71"/><line class="cls-1" x1="14.71" y1="12.88" x2="13.08" y2="11.26"/><line class="cls-1" x1="13.91" y1="10.43" x2="12.32" y2="12.02"/><line class="cls-1" x1="5.81" y1="29.81" x2="4.67" y2="28.67"/><line class="cls-1" x1="7.32" y1="28.3" x2="6.18" y2="27.17"/><line class="cls-1" x1="8.83" y1="26.8" x2="7.69" y2="25.66"/><line class="cls-1" x1="10.33" y1="25.29" x2="9.19" y2="24.15"/><line class="cls-1" x1="11.84" y1="23.78" x2="10.7" y2="22.65"/><line class="cls-1" x1="13.35" y1="22.28" x2="12.21" y2="21.14"/><line class="cls-1" x1="14.85" y1="20.77" x2="13.72" y2="19.63"/></svg>