<svg  xmlns="http://www.w3.org/2000/svg" viewBox="0 0 34 34">
    <path class="cls-1"
          d="M30.57,30.71V2.81A1.32,1.32,0,0,0,29.25,1.5H21.91a10.74,10.74,0,0,0-7.84,3.4L12.76,6.29H5.23a1.8,1.8,0,0,0-1.8,1.79V30.71a1.8,1.8,0,0,0,1.8,1.79H28.77A1.8,1.8,0,0,0,30.57,30.71Z"/>
    <path class="cls-1"
          d="M16.86,8.77a.49.49,0,0,1-.4-.78c.8-1.14,2.57-3.13,5.23-3.13h5a.49.49,0,0,1,.5.49V8.28a.49.49,0,0,1-.5.49Z"/>
    <polyline class="cls-1" points="6.48 6.27 6.48 1.5 10.58 1.5 10.58 6.27"/>
    <line class="cls-1" x1="11.87" y1="3.38" x2="5.19" y2="3.38"/>
    <path class="cls-1" d="M21.63,21.46a4.6,4.6,0,1,1-9.2,0c0-2.54,4.6-7.85,4.6-7.85S21.63,18.92,21.63,21.46Z"/>
    <path class="cls-1" d="M16.05,23.29a1.75,1.75,0,0,1-1.13-1.64"/>
</svg>