<svg xmlns="http://www.w3.org/2000/svg" viewBox="0 0 34 34">
    <rect class="cls-1" x="0.5" y="10.16" width="16.13" height="13.67"/>
    <polygon class="cls-1" points="20.68 22.36 16.6 23.84 16.6 10.16 20.68 11.64 20.68 22.36"/>
    <polygon class="cls-1" points="20.68 11.64 33.5 14.38 33.5 19.55 29.2 20.72 28.3 22.36 20.68 22.36 20.68 11.64"/>
    <line class="cls-1" x1="0.5" y1="8.75" x2="0.5" y2="25.25"/>
    <line class="cls-1" x1="16.63" y1="8.75" x2="16.63" y2="25.25"/>
    <rect class="cls-1" x="3.7" y="12.56" width="9.73" height="2.07"/>
    <rect class="cls-1" x="3.7" y="17.12" width="9.73" height="2.07"/>
    <rect class="cls-1" x="22.6" y="15.19" width="4.53" height="4.53"/>
    <line class="cls-1" x1="16.63" y1="13" x2="18.3" y2="13"/>
    <line class="cls-1" x1="16.63" y1="15.67" x2="18.3" y2="15.67"/>
    <line class="cls-1" x1="16.63" y1="18.33" x2="18.3" y2="18.33"/>
    <line class="cls-1" x1="16.63" y1="21" x2="18.3" y2="21"/>
    <line class="cls-1" x1="33.5" y1="12.89" x2="33.5" y2="20.89"/>
</svg>