<svg xmlns="http://www.w3.org/2000/svg" viewBox="0 0 34 34">

    <circle class="cls-1" cx="17" cy="17" r="8.88"/>
    <circle class="cls-1" cx="17" cy="17" r="1.94"/>
    <path class="cls-1" d="M17.47,15.12,19.34,11a4.85,4.85,0,0,1,3.71,3.71l-4.17,1.87"/>
    <path class="cls-1" d="M15.12,16.53,11,14.66A4.85,4.85,0,0,1,14.66,11l1.87,4.17"/>
    <path class="cls-1" d="M16.53,18.88l-1.87,4.17A4.85,4.85,0,0,1,11,19.34l4.17-1.87"/>
    <path class="cls-1" d="M18.88,17.47l4.17,1.87a4.85,4.85,0,0,1-3.71,3.71l-1.87-4.17"/>
    <line class="cls-1" x1="2.2" y1="3.82" x2="2.2" y2="30.18"/>
    <line class="cls-1" x1="5.16" y1="3.82" x2="5.16" y2="30.18"/>
    <line class="cls-1" x1="8.12" y1="3.82" x2="8.12" y2="30.18"/>
    <line class="cls-1" x1="11.08" y1="3.82" x2="11.08" y2="10.25"/>
    <line class="cls-1" x1="14.04" y1="3.82" x2="14.04" y2="8.51"/>
    <line class="cls-1" x1="17" y1="3.82" x2="17" y2="8.12"/>
    <line class="cls-1" x1="19.96" y1="3.82" x2="19.96" y2="8.51"/>
    <line class="cls-1" x1="22.92" y1="3.82" x2="22.92" y2="10.25"/>
    <line class="cls-1" x1="11.08" y1="30.18" x2="11.08" y2="23.75"/>
    <line class="cls-1" x1="14.04" y1="30.18" x2="14.04" y2="25.49"/>
    <line class="cls-1" x1="17" y1="30.18" x2="17" y2="25.88"/>
    <line class="cls-1" x1="19.96" y1="30.18" x2="19.96" y2="25.49"/>
    <line class="cls-1" x1="22.92" y1="30.18" x2="22.92" y2="23.75"/>
    <line class="cls-1" x1="25.88" y1="3.82" x2="25.88" y2="30.18"/>
    <line class="cls-1" x1="28.84" y1="3.82" x2="28.84" y2="30.18"/>
    <line class="cls-1" x1="31.8" y1="3.82" x2="31.8" y2="30.18"/>
    <line class="cls-1" x1="0.5" y1="3.82" x2="33.5" y2="3.82"/>
    <line class="cls-1" x1="0.5" y1="30.18" x2="33.5" y2="30.18"/>
</svg>