<svg  xmlns="http://www.w3.org/2000/svg" viewBox="0 0 34 34">

    <rect class="cls-1" x="4.26" y="22.05" width="7.34" height="8.03" transform="translate(20.75 2.02) rotate(45)"/>
    <path class="cls-1" d="M21.07,16.74l-3.81-3.81,9.52-9.52h0a4.65,4.65,0,0,1,3.81,3.81h0Z"/>
    <rect class="cls-1" x="7.64" y="19.13" width="9.66" height="4.79" transform="translate(18.88 -2.51) rotate(45)"/>
    <path class="cls-1"
          d="M19.73,21.1l1.8-1.8a1.48,1.48,0,0,0,0-2.1L16.8,12.47a1.48,1.48,0,0,0-2.1,0l-1.8,1.8L11.82,13.2,9.67,15.35l9,9,2.15-2.15Z"/>
    <line class="cls-1" x1="5.1" y1="28.9" x2="3.02" y2="30.98"/>
    <line class="cls-1" x1="29.28" y1="4.72" x2="31.5" y2="2.5"/>
    <line class="cls-1" x1="12.9" y1="14.27" x2="19.73" y2="21.1"/>
    <line class="cls-1" x1="14.16" y1="19.84" x2="16.31" y2="17.69"/>
    <line class="cls-1" x1="3.76" y1="25.04" x2="10.14" y2="29.06"/>
    <line class="cls-1" x1="5.74" y1="23.07" x2="12.11" y2="27.09"/>
</svg>