<svg xmlns="http://www.w3.org/2000/svg" viewBox="0 0 34 34">

    <circle class="cls-1" cx="17" cy="17" r="14"/>
    <line class="cls-1" x1="17" y1="3" x2="17" y2="5.68"/>
    <line class="cls-1" x1="12.21" y1="3.84" x2="13.13" y2="6.36"/>
    <line class="cls-1" x1="8" y1="6.28" x2="9.72" y2="8.32"/>
    <line class="cls-1" x1="4.88" y1="10" x2="7.19" y2="11.34"/>
    <line class="cls-1" x1="3.21" y1="14.57" x2="5.85" y2="15.03"/>
    <line class="cls-1" x1="3.21" y1="19.43" x2="5.85" y2="18.97"/>
    <line class="cls-1" x1="21.79" y1="3.84" x2="20.87" y2="6.36"/>
    <line class="cls-1" x1="26" y1="6.28" x2="24.28" y2="8.32"/>
    <line class="cls-1" x1="29.12" y1="10" x2="26.81" y2="11.34"/>
    <line class="cls-1" x1="30.79" y1="14.57" x2="28.15" y2="15.03"/>
    <line class="cls-1" x1="30.79" y1="19.43" x2="28.15" y2="18.97"/>
    <rect class="cls-1" x="10.62" y="23.56" width="12.75" height="2.89"/>
    <circle class="cls-1" cx="17" cy="17" r="1.95"/>
    <line class="cls-1" x1="18.04" y1="15.36" x2="20.69" y2="10.67"/>
    <line class="cls-1" x1="15.18" y1="20.39" x2="16.13" y2="18.73"/>
</svg>