<svg width="34" height="34" viewBox="0 0 34 34" fill="none" xmlns="http://www.w3.org/2000/svg">
<path d="M25.6691 21.5043L25.7428 21.6884C25.8989 22.0224 25.9776 22.3874 25.9729 22.7561C25.9708 23.2412 25.8347 23.7162 25.5797 24.1287C25.3246 24.5413 24.9606 24.8754 24.5277 25.0942L11.4844 31.8321C11.2213 31.9732 10.9269 32.046 10.6284 32.0438C10.1401 32.0438 9.67186 31.8499 9.32661 31.5046C8.98136 31.1594 8.7874 30.6911 8.7874 30.2029C8.78275 29.9526 8.83303 29.7044 8.93468 29.4757L13.2426 16.5889C13.287 16.4617 13.3088 16.3278 13.307 16.1931C13.3056 16.0489 13.2808 15.9058 13.2334 15.7697L11.0886 7.48528C11.0203 7.18325 10.9863 6.87446 10.9874 6.56479C11.0086 5.65362 11.3387 4.77667 11.9235 4.07761C12.5083 3.37854 13.3132 2.8988 14.2063 2.71698C15.0994 2.53515 16.0278 2.66201 16.8394 3.07678C17.6509 3.49155 18.1132 4.15302 18.489 4.98335C21.0468 11.4975 22.7625 15.128 25.6691 21.5043Z" stroke="#FFA734" stroke-linecap="round" stroke-linejoin="round"/>
<circle cx="14.8901" cy="6.54817" r="3.66207" stroke="#FFA734" stroke-width="0.5"/>
<circle cx="23.6524" cy="22.8222" r="2.09724" stroke="#FFA734" stroke-width="0.5"/>
<circle cx="10.6649" cy="30.177" r="1.62779" stroke="#FFA734" stroke-width="0.5"/>
<path d="M13.075 16.2612C13.075 16.7281 12.6965 17.1065 12.2297 17.1065C11.7628 17.1065 11.3843 16.7281 11.3843 16.2612C11.3843 15.7943 11.7628 15.4158 12.2297 15.4158C12.6965 15.4158 13.075 15.7943 13.075 16.2612Z" stroke="#FFA734" stroke-width="0.5"/>
</svg>
