<svg xmlns="http://www.w3.org/2000/svg" viewBox="0 0 34 34">

    <path class="cls-1"
          d="M4.17,24.82c2.14,0,2.14,1.89,4.27,1.89s2.14-1.89,4.28-1.89,2.13,1.89,4.27,1.89,2.14-1.89,4.28-1.89,2.14,1.89,4.28,1.89,2.14-1.89,4.28-1.89"/>
    <path class="cls-1" d="M29.83,11.63v17A4.89,4.89,0,0,1,25,33.5H9.05a4.89,4.89,0,0,1-4.88-4.88v-17"/>
    <circle class="cls-1" cx="17" cy="18.23" r="4.42"/>
    <circle class="cls-1" cx="17" cy="18.23" r="1.54"/>
    <polyline class="cls-1" points="29.83 0.5 29.83 11.63 32.37 11.63"/>
    <path class="cls-1" d="M1.63,11.63H4.17A11.81,11.81,0,0,1,12,.51h0"/>
    <path class="cls-1" d="M20,14.89V12.78h0a4.5,4.5,0,0,1-1.44-3V.5"/>
    <path class="cls-1"
          d="M18.54,2.37h.13a7.34,7.34,0,0,1,5.45,2.42h0A1.72,1.72,0,0,1,24,7.21h0a6.67,6.67,0,0,0-2.23,4.62l-.34,6.4"/>
    <polyline class="cls-1" points="21.76 11.83 24.01 11.83 24.01 19.77 21.14 19.77"/>
    <path class="cls-1" d="M14,14.89V12.78h0a4.5,4.5,0,0,0,1.44-3V.5"/>
    <path class="cls-1"
          d="M15.46,2.37h-.13A7.34,7.34,0,0,0,9.88,4.79h0A1.72,1.72,0,0,0,10,7.21h0a6.67,6.67,0,0,1,2.23,4.62l.34,6.4"/>
    <polyline class="cls-1" points="12.24 11.83 9.99 11.83 9.99 19.77 12.86 19.77"/>
</svg>