<svg width="14" height="18" viewBox="0 0 14 18" fill="none" xmlns="http://www.w3.org/2000/svg">
    <path d="M6.84511 8.80318C8.8464 8.80318 10.4689 6.83254 10.4689 4.40162C10.4689 1.97064 9.93622 0 6.84511 0C3.75399 0 3.22119 1.97064 3.22119 4.40162C3.22119 6.83254 4.84371 8.80318 6.84511 8.80318Z"
          fill="#595959"/>
    <path d="M13.6907 15.5239C13.69 15.3757 13.6894 15.4822 13.6907 15.5239V15.5239Z" fill="#595959"/>
    <path d="M0 15.6397C0.00193926 15.5991 0.000663432 15.3581 0 15.6397V15.6397Z" fill="#595959"/>
    <path d="M13.6824 15.3461C13.6153 11.1114 13.0622 9.90469 8.82998 9.14087C8.82998 9.14087 8.23423 9.90001 6.84566 9.90001C5.45709 9.90001 4.86123 9.14087 4.86123 9.14087C0.675205 9.89636 0.088508 11.0851 0.0113651 15.2085C0.0050394 15.5452 0.00210799 15.5629 0.000976562 15.5238C0.00123371 15.5971 0.00154216 15.7325 0.00154216 15.9687C0.00154216 15.9687 1.00913 18 6.84566 18C12.6821 18 13.6898 15.9687 13.6898 15.9687C13.6898 15.817 13.6899 15.7114 13.69 15.6396C13.6889 15.6638 13.6866 15.617 13.6824 15.3461Z"
          fill="#595959"/>
</svg>
