<svg width="16" height="24" viewBox="0 0 16 24" fill="none" xmlns="http://www.w3.org/2000/svg">
<path d="M13.6563 2.34371C12.0939 0.781072 10.2083 0 8.00002 0C5.7916 0 3.90624 0.781236 2.34377 2.34371C0.781352 3.90612 6.10352e-05 5.79154 6.10352e-05 7.99996C6.10352e-05 9.1355 0.171906 10.0677 0.51554 10.7969L6.2187 22.8909C6.375 23.2344 6.61728 23.5052 6.94537 23.7029C7.27352 23.9009 7.62503 24 8.00013 24C8.37513 24 8.72681 23.9009 9.0549 23.7029C9.38304 23.5052 9.63025 23.2344 9.79695 22.8909L15.4841 10.7969C15.8279 10.0677 15.9999 9.13545 15.9999 7.99996C16.0002 5.79154 15.219 3.90634 13.6563 2.34371ZM10.828 10.8281C10.0469 11.6092 9.10426 11.9999 8.00002 11.9999C6.89579 11.9999 5.95316 11.6092 5.17181 10.8281C4.39058 10.0468 3.99988 9.10415 3.99988 7.99991C3.99988 6.89578 4.39058 5.95299 5.17181 5.17186C5.95316 4.39063 6.89595 3.99993 8.00002 3.99993C9.10426 3.99993 10.0469 4.39063 10.828 5.17186C11.6092 5.95293 11.9999 6.89578 11.9999 7.99991C11.9999 9.10404 11.6093 10.0466 10.828 10.8281Z" fill="#FFA734"/>
</svg>
