<svg width="24" height="22" viewBox="0 0 24 22" fill="none" xmlns="http://www.w3.org/2000/svg">
<path d="M22.3931 4.97812C21.3216 3.66119 19.8661 2.62098 18.027 1.85758C16.188 1.09427 14.1788 0.712524 12.0002 0.712524C10.3751 0.712524 8.82152 0.937923 7.33942 1.38882C5.85733 1.83966 4.5806 2.44906 3.50914 3.21687C2.4375 3.98477 1.58502 4.89772 0.950992 5.95567C0.316966 7.01366 0 8.12311 0 9.28383C0 10.623 0.403889 11.8779 1.21199 13.0476C2.0201 14.217 3.12486 15.1993 4.52679 15.994C4.42847 16.351 4.31242 16.6904 4.17844 17.0116C4.04452 17.333 3.92401 17.5967 3.81687 17.802C3.70963 18.0074 3.56468 18.2352 3.3815 18.4851C3.1986 18.7351 3.06022 18.9115 2.96645 19.014C2.87277 19.1168 2.71877 19.2867 2.50434 19.523C2.2902 19.7598 2.15173 19.9137 2.08929 19.9852C2.08024 19.9894 2.04459 20.0299 1.9821 20.1057C1.91967 20.1814 1.88833 20.2193 1.88833 20.2193L1.80798 20.3397C1.76327 20.4068 1.7432 20.4492 1.7476 20.4667C1.75211 20.4842 1.7432 20.5291 1.72087 20.6004C1.69849 20.672 1.70079 20.7256 1.72753 20.7615V20.7748C1.76341 20.9356 1.84152 21.065 1.96198 21.163C2.08244 21.2612 2.21876 21.3014 2.37047 21.2833C2.95097 21.2119 3.45984 21.1141 3.89727 20.9889C6.23663 20.3904 8.29027 19.3104 10.0581 17.7476C10.7275 17.819 11.3749 17.8548 11.9999 17.8548C14.1785 17.8548 16.1875 17.4731 18.0268 16.7094C19.866 15.9461 21.3213 14.9059 22.3927 13.5892C23.4642 12.2728 24 10.8373 24 9.28379C24 7.7302 23.4643 6.29482 22.3931 4.97812Z" fill="#FFA734"/>
</svg>
