<svg width="12" height="12" viewBox="0 0 12 12" fill="none" xmlns="http://www.w3.org/2000/svg">
<path d="M0 8.70503V12H3.29504L9.88511 5.40999L6.59001 2.11493L0 8.70503ZM2.87521 10.9861L2.02767 10.9863V9.97237H1.01386V9.12475L1.73465 8.40396L3.596 10.2653L2.87521 10.9861ZM6.84369 3.46151C6.95971 3.46151 7.0178 3.51963 7.0178 3.63573C7.0178 3.68861 6.99938 3.73341 6.96234 3.77045L2.66925 8.0635C2.63227 8.10035 2.58735 8.11885 2.53459 8.11885C2.41851 8.11885 2.36039 8.06065 2.36039 7.94465C2.36039 7.89178 2.37887 7.84697 2.41579 7.80993L6.70891 3.51694C6.74578 3.47998 6.7907 3.46151 6.84369 3.46151Z" fill="#FFA734"/>
<path d="M11.7068 2.15434L9.8455 0.300954C9.64487 0.100401 9.40459 0 9.12469 0C8.83941 0 8.60196 0.100401 8.41189 0.300954L7.09705 1.60789L10.3921 4.90291L11.707 3.58812C11.9024 3.39273 12 3.15511 12 2.87521C11.9999 2.6007 11.9023 2.36036 11.7068 2.15434Z" fill="#FFA734"/>
</svg>
