<svg width="16" height="16" viewBox="0 0 16 16" fill="none" xmlns="http://www.w3.org/2000/svg">
<path d="M16 14.8385L11.6644 10.4827C12.4978 9.38475 12.9943 8.01495 12.9943 6.53046C12.9943 2.93224 10.0798 0.00341797 6.49703 0.00341797C2.91431 0.00341797 0 2.93224 0 6.53046C0 10.1301 2.91451 13.0591 6.49703 13.0591C8.0161 13.0591 9.41353 12.5314 10.5212 11.6503L14.8476 15.9965L16 14.8385ZM6.49703 11.5897C3.72105 11.5897 1.46222 9.32016 1.46222 6.53046C1.46222 3.74255 3.72105 1.473 6.49703 1.473C9.27321 1.473 11.532 3.74255 11.532 6.53046C11.5318 9.32035 9.27321 11.5897 6.49703 11.5897Z" fill="#595959"/>
</svg>
