<svg width="12" height="12" viewBox="0 0 12 12" fill="none" xmlns="http://www.w3.org/2000/svg">
<path d="M11.9377 4.96492C11.8958 4.91014 11.8412 4.87754 11.7736 4.8672L10.3439 4.64851C10.2658 4.39848 10.159 4.14333 10.0236 3.88285C10.1172 3.75265 10.2578 3.56909 10.4453 3.33204C10.6327 3.09504 10.7655 2.92193 10.8437 2.8125C10.8854 2.7552 10.9061 2.69535 10.9061 2.6328C10.9061 2.55993 10.888 2.50268 10.8514 2.46095C10.664 2.1953 10.2343 1.75263 9.56239 1.1328C9.50014 1.08072 9.43484 1.0547 9.36723 1.0547C9.28905 1.0547 9.22658 1.0781 9.17967 1.12495L8.07035 1.9609C7.85675 1.85147 7.62237 1.75512 7.36728 1.67179L7.14853 0.234375C7.14331 0.166676 7.11331 0.110661 7.05864 0.0663857C7.00388 0.0220556 6.94021 0 6.86717 0H5.13283C4.98178 0 4.888 0.0728711 4.85158 0.218723C4.78385 0.479039 4.7083 0.963414 4.625 1.67177C4.38017 1.75003 4.1432 1.84898 3.91405 1.96875L2.83592 1.1328C2.76822 1.08072 2.70053 1.0547 2.63283 1.0547C2.51825 1.0547 2.27219 1.24089 1.89457 1.61329C1.51694 1.98577 1.26056 2.26568 1.12503 2.4531C1.07812 2.5208 1.05476 2.58072 1.05476 2.6328C1.05476 2.69535 1.08075 2.75785 1.13283 2.82027C1.48175 3.24223 1.76045 3.60149 1.9688 3.89851C1.83858 4.13805 1.73703 4.37768 1.66419 4.61723L0.211006 4.83592C0.153732 4.84638 0.104285 4.88028 0.0625821 4.93758C0.0207968 4.99483 0 5.05478 0 5.11717V6.8516C0 6.91941 0.0207968 6.98046 0.0625 7.03516C0.104203 7.08984 0.15885 7.12259 0.226576 7.13291L1.65636 7.34389C1.72923 7.59906 1.83598 7.85677 1.97663 8.11712C1.88294 8.2474 1.74231 8.43093 1.55481 8.66793C1.36734 8.90504 1.2344 9.0781 1.15636 9.18747C1.11463 9.24499 1.09383 9.30473 1.09383 9.36725C1.09383 9.43487 1.11206 9.49472 1.14848 9.54679C1.3516 9.82821 1.78128 10.2657 2.43758 10.8594C2.49491 10.9167 2.56004 10.9453 2.63288 10.9453C2.71106 10.9453 2.77616 10.922 2.82821 10.8752L3.92987 10.0391C4.14353 10.1485 4.37785 10.2449 4.63304 10.3283L4.85177 11.7657C4.85705 11.8333 4.88699 11.8893 4.9416 11.9337C4.99625 11.9781 5.06012 12 5.13302 12H6.86736C7.01869 12 7.11233 11.9272 7.14886 11.7813C7.21648 11.5209 7.29195 11.0366 7.37527 10.3283C7.62007 10.2501 7.85708 10.1511 8.08622 10.0312L9.16443 10.8752C9.2373 10.922 9.30511 10.9453 9.36747 10.9453C9.48202 10.9453 9.72679 10.7605 10.1017 10.3906C10.4769 10.0209 10.7347 9.73963 10.8752 9.54679C10.922 9.49475 10.9455 9.43487 10.9455 9.36725C10.9455 9.29945 10.9195 9.23421 10.8673 9.1719C10.4924 8.71344 10.2137 8.3542 10.0314 8.09369C10.1356 7.90097 10.2372 7.66405 10.3361 7.38277L11.7814 7.16419C11.8438 7.1537 11.8961 7.1198 11.9376 7.0625C11.9793 7.00509 12 6.94516 12 6.88269V5.14845C12.0001 5.08075 11.9794 5.01965 11.9377 4.96492ZM7.41424 7.41405C7.02372 7.80473 6.55235 8.00008 6.00016 8.00008C5.44803 8.00008 4.97671 7.80473 4.58603 7.41405C4.19549 7.02353 4.00014 6.55213 4.00014 6.00005C4.00014 5.44793 4.19538 4.9766 4.58603 4.58592C4.97671 4.19538 5.44812 4.00003 6.00016 4.00003C6.55235 4.00003 7.02375 4.19538 7.41424 4.58592C7.80484 4.9766 8.00019 5.44793 8.00019 6.00005C8.00019 6.55213 7.80486 7.02356 7.41424 7.41405Z" fill="#FFA734"/>
</svg>
