<svg width="372" height="372" viewBox="0 0 372 372" fill="none" xmlns="http://www.w3.org/2000/svg">
<path d="M226.106 255.458C226.106 254.167 225.653 252.875 224.75 251.584C217.516 242.927 211.705 235.5 207.311 229.304C210.024 224.009 212.091 219.1 213.508 214.583L243.54 209.933C244.706 209.801 245.74 209.125 246.643 207.901C247.546 206.669 247.994 205.412 247.994 204.12V168.274C247.994 166.855 247.546 165.595 246.643 164.499C245.74 163.403 244.641 162.722 243.349 162.468L213.897 158.011C212.474 153.618 210.28 148.32 207.309 142.123C209.244 139.279 212.154 135.403 216.03 130.497C219.904 125.588 222.621 122.102 224.167 120.035C225.073 118.743 225.523 117.515 225.523 116.354C225.523 112.866 216.222 102.533 197.627 85.3526C196.337 84.3211 194.98 83.8047 193.554 83.8047C192.008 83.8047 190.716 84.2519 189.678 85.1599L166.815 102.404C161.521 99.6919 156.677 97.6906 152.285 96.3951L147.828 66.753C147.701 65.4616 147.055 64.3297 145.892 63.362C144.729 62.3936 143.438 61.9084 142.015 61.9084H105.981C103.01 61.9084 101.073 63.4584 100.169 66.5576C98.6176 72.5003 97.1335 82.4482 95.7124 96.3951C90.1593 98.203 85.1864 100.27 80.795 102.595L58.5146 85.1592C57.2232 84.2533 55.8673 83.804 54.4456 83.804C51.9883 83.804 46.8871 87.6138 39.138 95.236C31.3875 102.856 26.0888 108.603 23.2495 112.479C22.3442 113.514 21.8943 114.805 21.8943 116.355C21.8943 117.516 22.3435 118.808 23.2495 120.229C30.4815 128.885 36.2932 136.312 40.6859 142.509C37.9742 147.808 35.9085 152.714 34.4888 157.234L4.45649 161.881C3.29266 162.01 2.26048 162.687 1.3552 163.912C0.45196 165.142 0 166.399 0 167.69V203.534C0 204.956 0.45196 206.214 1.3552 207.31C2.26048 208.411 3.35713 209.024 4.65126 209.152L34.1006 213.802C35.6506 218.708 37.9131 224.006 40.8834 229.689C38.8163 232.533 35.7822 236.474 31.7777 241.509C27.7705 246.549 25.1238 249.972 23.8331 251.779C22.9292 253.07 22.4765 254.301 22.4765 255.457C22.4765 258.95 31.7777 269.28 50.3773 286.461C51.6687 287.492 53.0232 288.005 54.4463 288.005C56.1252 288.005 57.4166 287.557 58.3198 286.651L81.1818 269.41C86.4758 272.123 91.3197 274.122 95.7131 275.414L100.17 305.059C100.297 306.35 100.945 307.483 102.106 308.449C103.268 309.418 104.56 309.901 105.981 309.901H142.016C144.988 309.901 146.924 308.352 147.829 305.252C149.379 299.179 150.863 289.17 152.286 275.219C157.45 273.675 162.423 271.666 167.203 269.216L189.484 286.651C190.775 287.557 192.131 288.005 193.553 288.005C196.008 288.005 201.08 284.164 208.764 276.475C216.446 268.795 221.777 263.01 224.749 259.136C225.653 258.235 226.106 257.009 226.106 255.458ZM159.066 220.976C149.381 230.66 137.69 235.504 124 235.504C110.306 235.504 98.6156 230.659 88.9303 220.976C79.2437 211.287 74.3997 199.596 74.3997 185.905C74.3997 172.215 79.2437 160.524 88.9303 150.837C98.6156 141.15 110.307 136.307 124 136.307C137.69 136.307 149.381 141.149 159.066 150.837C168.755 160.524 173.598 172.215 173.598 185.905C173.598 199.596 168.756 211.287 159.066 220.976Z" fill="#E0E0E0"/>
<path d="M343.129 265.537C341.452 261.793 339.512 258.435 337.319 255.462C343.907 240.864 347.198 231.951 347.198 228.723C347.198 228.212 346.945 227.757 346.424 227.369C330.92 218.329 322.915 213.807 322.398 213.807L321.237 214.197C315.941 219.495 309.997 226.726 303.412 235.897C300.83 235.64 298.895 235.507 297.604 235.507C296.308 235.507 294.373 235.64 291.789 235.897C289.987 233.182 286.624 228.821 281.717 222.818C276.81 216.815 273.837 213.808 272.804 213.808C272.546 213.808 270.609 214.841 266.99 216.912C263.375 218.98 259.564 221.171 255.56 223.501C251.552 225.831 249.297 227.117 248.779 227.377C248.259 227.762 248.003 228.218 248.003 228.729C248.003 231.962 251.296 240.868 257.883 255.468C255.691 258.441 253.751 261.798 252.072 265.54C232.825 267.474 223.201 269.479 223.201 271.545V298.668C223.201 300.736 232.825 302.737 252.072 304.674C253.619 308.163 255.558 311.521 257.883 314.744C251.296 329.343 248.003 338.256 248.003 341.483C248.003 341.999 248.259 342.454 248.779 342.84C264.534 352.011 272.546 356.595 272.804 356.595C273.836 356.595 276.809 353.56 281.717 347.489C286.624 341.417 289.982 337.029 291.789 334.317C294.371 334.57 296.308 334.7 297.604 334.7C298.894 334.7 300.83 334.57 303.412 334.317C305.216 337.029 308.577 341.417 313.484 347.489C318.391 353.56 321.361 356.595 322.398 356.595C322.656 356.595 330.668 352.009 346.424 342.84C346.945 342.454 347.198 342.002 347.198 341.483C347.198 338.255 343.903 329.342 337.319 314.744C339.643 311.521 341.58 308.163 343.129 304.674C362.376 302.737 372 300.736 372 298.668V271.545C372 269.478 362.376 267.474 343.129 265.537ZM315.13 302.638C310.293 307.483 304.446 309.91 297.599 309.91C290.75 309.91 284.905 307.483 280.065 302.638C275.221 297.794 272.796 291.951 272.796 285.105C272.796 278.391 275.253 272.574 280.162 267.669C285.069 262.762 290.883 260.307 297.598 260.307C304.313 260.307 310.13 262.759 315.039 267.669C319.944 272.574 322.401 278.391 322.401 285.105C322.397 291.951 319.977 297.794 315.13 302.638Z" fill="#E0E0E0"/>
<path d="M343.129 67.1365C341.452 63.3905 339.512 60.0327 337.319 57.0596C343.907 42.4659 347.198 33.553 347.198 30.3241C347.198 29.8097 346.945 29.3557 346.424 28.9675C330.92 19.9263 322.915 15.406 322.398 15.406L321.237 15.7928C315.941 21.0915 309.997 28.3228 303.412 37.493C300.83 37.2365 298.895 37.1062 297.604 37.1062C296.308 37.1062 294.373 37.2365 291.789 37.493C289.987 34.7806 286.624 30.4218 281.717 24.416C276.81 18.4089 273.837 15.4067 272.804 15.4067C272.546 15.4067 270.609 16.4389 266.99 18.5073C263.375 20.5764 259.564 22.7711 255.56 25.0967C251.552 27.423 249.297 28.7137 248.779 28.9702C248.259 29.3577 248.003 29.8097 248.003 30.3268C248.003 33.5557 251.296 42.4693 257.883 57.0637C255.691 60.0361 253.751 63.3932 252.072 67.1392C232.825 69.0753 223.201 71.0765 223.201 73.1436V100.269C223.201 102.334 232.825 104.338 252.072 106.273C253.619 109.759 255.558 113.119 257.883 116.349C251.296 130.946 248.003 139.855 248.003 143.085C248.003 143.599 248.259 144.053 248.779 144.441C264.534 153.611 272.546 158.196 272.804 158.196C273.836 158.196 276.809 155.162 281.717 149.091C286.624 143.019 289.982 138.63 291.789 135.916C294.371 136.172 296.308 136.303 297.604 136.303C298.894 136.303 300.83 136.172 303.412 135.916C305.216 138.63 308.577 143.018 313.484 149.091C318.391 155.162 321.361 158.196 322.398 158.196C322.656 158.196 330.668 153.611 346.424 144.441C346.945 144.053 347.198 143.601 347.198 143.085C347.198 139.855 343.903 130.946 337.319 116.349C339.643 113.119 341.58 109.761 343.129 106.273C362.376 104.337 372 102.334 372 100.269V73.1436C372 71.0765 362.376 69.0746 343.129 67.1365ZM315.13 104.239C310.293 109.084 304.446 111.506 297.599 111.506C290.75 111.506 284.905 109.084 280.065 104.239C275.221 99.3973 272.796 93.5517 272.796 86.7058C272.796 79.9895 275.253 74.1758 280.162 69.2673C285.069 64.3589 290.883 61.9043 297.598 61.9043C304.313 61.9043 310.13 64.3616 315.039 69.2673C319.944 74.1751 322.401 79.9895 322.401 86.7058C322.397 93.5517 319.977 99.3973 315.13 104.239Z" fill="#E0E0E0"/>
</svg>
