<svg width="22" height="24" viewBox="0 0 22 24" fill="none" xmlns="http://www.w3.org/2000/svg">
<path d="M10.9998 7.42767C8.4783 7.42767 6.42697 9.479 6.42697 12.0004C6.42697 14.5219 8.4783 16.5732 10.9998 16.5732C13.5212 16.5732 15.5725 14.5219 15.5725 12.0004C15.5725 9.479 13.5212 7.42767 10.9998 7.42767ZM13.7148 11.1392L10.4388 14.4152C10.3013 14.5527 10.1209 14.6215 9.94077 14.6215C9.76059 14.6215 9.58041 14.5529 9.4429 14.4152L8.19101 13.1633C7.91599 12.8884 7.91599 12.4426 8.19101 12.1675C8.46585 11.8925 8.91171 11.8925 9.18674 12.1675L9.94077 12.9216L12.719 10.1435C12.9939 9.86847 13.4397 9.86847 13.7148 10.1435C13.9898 10.4183 13.9898 10.8642 13.7148 11.1392Z" fill="#FFA734"/>
<path d="M21.1947 6.51175L21.194 6.49307C21.1836 6.26254 21.1766 6.01864 21.1724 5.74728C21.1528 4.42398 20.1009 3.32938 18.7774 3.25541C16.018 3.10142 13.8833 2.20164 12.0594 0.423873L12.0439 0.409041C11.449 -0.136428 10.5516 -0.136428 9.95648 0.409041L9.94091 0.423873C8.11701 2.20164 5.98237 3.10142 3.22298 3.25559C1.89968 3.32938 0.847556 4.42398 0.827964 5.74747C0.823935 6.017 0.816794 6.26089 0.806357 6.49307L0.805259 6.53647C0.751609 9.35024 0.684959 12.8521 1.85646 16.0306C2.50063 17.7786 3.47621 19.298 4.75593 20.5469C6.21345 21.9693 8.1225 23.0985 10.43 23.9031C10.5051 23.9292 10.5831 23.9505 10.6625 23.9664C10.7746 23.9887 10.8874 23.9999 11.0002 23.9999C11.113 23.9999 11.2259 23.9887 11.3378 23.9664C11.4173 23.9505 11.4958 23.9291 11.5713 23.9027C13.876 23.0967 15.7831 21.9669 17.2393 20.5447C18.5185 19.2954 19.494 17.7756 20.1388 16.0273C21.3147 12.8393 21.2482 9.33083 21.1947 6.51175ZM10.9998 17.9814C7.70172 17.9814 5.01869 15.2984 5.01869 12.0003C5.01869 8.70223 7.70172 6.01919 10.9998 6.01919C14.2977 6.01919 16.9809 8.70223 16.9809 12.0003C16.9809 15.2984 14.2977 17.9814 10.9998 17.9814Z" fill="#FFA734"/>
</svg>
