<svg width="24" height="24" viewBox="0 0 24 24" fill="none" xmlns="http://www.w3.org/2000/svg">
<path d="M22.6797 1.32019C21.7999 0.440118 20.7398 0 19.5003 0H4.50022C3.26075 0 2.20067 0.440118 1.32044 1.32019C0.440363 2.20043 0.000244141 3.26044 0.000244141 4.49997V19.4999C0.000244141 20.7393 0.440363 21.7994 1.32044 22.6797C2.20067 23.5599 3.26075 24 4.50022 24H19.5002C20.7396 24 21.7997 23.5599 22.6796 22.6797C23.5598 21.7994 23.9999 20.7394 23.9999 19.4999V4.49997C23.9999 3.26044 23.5597 2.20026 22.6797 1.32019ZM19.656 18.2174C19.4372 18.6964 18.9451 19.1133 18.1796 19.4677C17.4139 19.822 16.7341 19.9992 16.1402 19.9992C15.9735 19.9992 15.7963 19.9863 15.6089 19.9603C15.4214 19.934 15.2628 19.9082 15.1326 19.8821C15.0024 19.8561 14.8303 19.8093 14.617 19.7415C14.4033 19.6739 14.2495 19.6217 14.1561 19.5853C14.062 19.5489 13.8903 19.4838 13.6405 19.3901C13.3904 19.2961 13.234 19.2388 13.1719 19.2184C11.4636 18.593 9.79407 17.4656 8.16395 15.8355C6.53384 14.205 5.40618 12.5358 4.78113 10.8278C4.76045 10.7652 4.70315 10.6089 4.60929 10.359C4.51559 10.1092 4.4503 9.9372 4.41386 9.84356C4.37763 9.74981 4.32547 9.59614 4.25772 9.38275C4.19002 9.16915 4.14328 8.99742 4.11718 8.86705C4.09102 8.73702 4.06519 8.57826 4.03908 8.39071C4.01303 8.20316 4.00006 8.02584 4.00006 7.8593C4.00006 7.26551 4.17721 6.58585 4.53147 5.82021C4.88566 5.05468 5.30225 4.56252 5.7815 4.34372C6.33359 4.11447 6.85963 3.99987 7.35968 3.99987C7.47411 3.99987 7.55757 4.01037 7.60951 4.03117C7.66166 4.05224 7.74764 4.14577 7.86749 4.31247C7.98734 4.47917 8.11749 4.69004 8.25808 4.94528C8.39873 5.20059 8.53675 5.44801 8.67215 5.6875C8.80755 5.92704 8.9378 6.1639 9.06285 6.39846C9.18785 6.63264 9.26594 6.78128 9.29714 6.84356C9.32839 6.89594 9.39614 6.99472 9.50023 7.14068C9.60432 7.28642 9.68264 7.41645 9.73463 7.53116C9.78662 7.64576 9.81273 7.75516 9.81273 7.8593C9.81273 8.01577 9.70584 8.20578 9.49235 8.42956C9.27875 8.65356 9.04435 8.85939 8.7891 9.04694C8.53385 9.2345 8.29957 9.43507 8.08602 9.64862C7.87264 9.862 7.76575 10.0365 7.76575 10.1719C7.76575 10.2449 7.78398 10.3307 7.82048 10.4297C7.85693 10.5289 7.89081 10.6096 7.92206 10.672C7.9533 10.7344 8.00289 10.823 8.07048 10.9377C8.13817 11.0524 8.18256 11.1253 8.20325 11.1566C8.77608 12.1878 9.43505 13.0759 10.1797 13.8208C10.9246 14.5658 11.8125 15.2244 12.8439 15.7974C12.875 15.8184 12.948 15.8625 13.0631 15.9303C13.1775 15.9978 13.2663 16.0472 13.3286 16.0785C13.3912 16.1097 13.4717 16.1437 13.5708 16.1799C13.6699 16.2162 13.7558 16.2345 13.8291 16.2345C13.9952 16.2345 14.2245 16.0628 14.5164 15.7191C14.808 15.3751 15.1051 15.034 15.4072 14.6954C15.7091 14.3572 15.9536 14.1879 16.1415 14.1879C16.2456 14.1879 16.3548 14.2138 16.4698 14.2658C16.5845 14.3179 16.7144 14.3962 16.8602 14.5003C17.0062 14.6048 17.1051 14.6722 17.1572 14.7039L17.985 15.1566C18.5371 15.4484 18.998 15.7061 19.3679 15.9301C19.7378 16.1541 19.9384 16.3076 19.9697 16.3908C19.9905 16.4429 20.0006 16.5264 20.0006 16.641C20.0002 17.1406 19.8856 17.6667 19.656 18.2174Z" fill="#FFA734"/>
</svg>
