<svg width="16" height="16" viewBox="0 0 16 16" fill="none" xmlns="http://www.w3.org/2000/svg">
<path d="M11.87 1H15.5C15.776 1 16 0.776 16 0.5C16 0.224 15.776 0 15.5 0H10.5C10.4395 0 10 0 10 0.5V5.5C10 5.776 10.224 6 10.5 6C10.776 6 11 5.776 11 5.5V1.6795C13.364 2.80251 15 5.2085 15 8C15 11.866 11.866 15 8 15C4.13399 15 1 11.866 1 8C1 4.47448 3.60899 1.56599 7 1.0795V0.0689935C3.05501 0.562013 0 3.92102 0 8C0 12.4185 3.58149 16 8 16C12.4185 16 16 12.4185 16 8C16 4.98599 14.332 2.364 11.87 1Z" fill="#BDBDBD"/>
</svg>
