<svg width="24" height="24" viewBox="0 0 24 24" fill="none" xmlns="http://www.w3.org/2000/svg">
<path d="M22.391 5.97645C21.3179 4.13803 19.8623 2.68243 18.0238 1.60938C16.185 0.536388 14.1777 0 12.0004 0C9.82322 0 7.81553 0.536388 5.97684 1.60938C4.13825 2.68227 2.68265 4.13787 1.60955 5.97645C0.536388 7.81515 0 9.82306 0 12C0 14.177 0.536552 16.1847 1.60938 18.0235C2.68243 19.8615 4.13803 21.3175 5.97662 22.3907C7.81531 23.4636 9.82306 24.0001 12.0001 24.0001C14.1772 24.0001 16.1852 23.4636 18.0238 22.3907C19.8622 21.3179 21.3178 19.8619 22.3908 18.0235C23.4636 16.1847 23.9999 14.1768 23.9999 12C24 9.82306 23.4636 7.81487 22.391 5.97645ZM13.5012 18.3138C13.3965 18.189 13.3603 18.0847 13.3918 18.001C13.3814 18.0532 13.3449 18.1001 13.2825 18.1416C13.2304 18.0792 13.1363 18.001 13.0011 17.9074C12.8655 17.8133 12.7719 17.7353 12.7198 17.6725C12.6988 17.6414 12.6704 17.5972 12.6338 17.5399C12.5973 17.4826 12.5505 17.4071 12.4932 17.3132C12.4363 17.2196 12.3947 17.1387 12.3685 17.0708C12.3426 17.0031 12.3402 16.9641 12.3606 16.954C12.1628 17.0375 11.8763 16.9802 11.5013 16.782C11.4285 16.7404 11.3189 16.631 11.1732 16.4539C11.0275 16.2767 10.8764 16.1988 10.7201 16.2194C10.6681 16.2299 10.5977 16.2481 10.5091 16.2741C10.4207 16.3003 10.3451 16.3131 10.2826 16.3131C10.22 16.3131 10.1367 16.2925 10.0324 16.2505C9.94926 16.2194 9.83729 16.1593 9.69664 16.0709C9.5561 15.9825 9.45961 15.9275 9.40768 15.9071C9.27228 15.834 9.20458 15.7977 9.20458 15.7977L8.95458 15.6729C8.89203 15.6419 8.82685 15.5924 8.75915 15.5246C8.69145 15.4568 8.64734 15.3864 8.62649 15.3135C8.60569 15.2512 8.57964 15.1261 8.54839 14.9384C8.51714 14.7507 8.47538 14.6155 8.42339 14.5323C8.361 14.4282 8.27245 14.324 8.15774 14.22C8.04331 14.1159 7.93916 14.0634 7.84536 14.0634C7.92876 14.0634 7.92876 13.9935 7.84536 13.8525C7.76195 13.7116 7.68905 13.6101 7.6265 13.548C7.60565 13.527 7.54309 13.4594 7.43895 13.3446C7.3348 13.2299 7.24625 13.1313 7.17335 13.0475C7.10051 12.9642 7.03774 12.868 6.9858 12.7584C6.93381 12.649 6.92325 12.558 6.95455 12.4849C6.96489 12.4746 6.95455 12.4589 6.92325 12.4381C6.892 12.4175 6.85309 12.3964 6.80607 12.3756C6.75928 12.3549 6.71495 12.3366 6.67341 12.3209C6.63155 12.3055 6.6003 12.2976 6.57956 12.2976C6.60052 12.3396 6.62388 12.4149 6.64999 12.5243C6.67604 12.6338 6.70466 12.7146 6.73586 12.7667C6.75682 12.8082 6.84526 12.9595 7.00151 13.2195C7.27252 13.657 7.3973 13.9802 7.37661 14.1885C7.31406 14.2091 7.2723 14.1989 7.2515 14.1574C7.23065 14.1159 7.21489 14.0585 7.2046 13.9855C7.1942 13.9128 7.18392 13.8608 7.1733 13.8293C7.14205 13.7668 7.06132 13.6989 6.93102 13.6259C6.80087 13.5533 6.72004 13.4802 6.68885 13.4071C6.69935 13.4071 6.71216 13.4023 6.72792 13.3914C6.74363 13.381 6.75676 13.3761 6.76705 13.3761C6.77762 13.2824 6.72294 13.1626 6.60309 13.0165C6.48323 12.8708 6.43398 12.7667 6.45467 12.7041C6.37126 12.6415 6.29836 12.5191 6.23581 12.337C6.17331 12.1546 6.12115 12.0374 6.07951 11.9852C6.03791 11.9229 5.98598 11.8682 5.92337 11.8212C5.86081 11.7745 5.78283 11.7224 5.68897 11.6651C5.59522 11.6078 5.53266 11.5688 5.50142 11.5479C5.48051 11.5377 5.43897 11.491 5.37642 11.4076C5.03272 10.9908 4.92858 10.7668 5.06403 10.7356C4.92863 10.7668 4.8166 10.6653 4.72805 10.4308C4.63945 10.1965 4.61088 10.0166 4.64208 9.89163L4.61088 9.87609C4.62139 9.83433 4.62653 9.71213 4.62653 9.50881C4.62653 9.30561 4.63967 9.12068 4.66566 8.95409C4.69182 8.78744 4.74124 8.70398 4.81409 8.70398C4.74124 8.71438 4.68663 8.64915 4.65012 8.50877C4.61367 8.36801 4.6111 8.27158 4.64224 8.21959C4.65264 8.18828 4.69965 8.20935 4.78289 8.28214C4.86608 8.35482 4.91303 8.40199 4.92343 8.42268C5.05889 8.34957 5.11104 8.25598 5.07974 8.14127C5.05889 8.09968 4.94948 7.99033 4.75159 7.81312C4.30359 7.52159 4.07433 7.38088 4.0641 7.39117C4.12638 7.27673 4.11083 7.17779 4.01708 7.09433C3.91299 7.15688 3.85312 7.17242 3.83741 7.14134C3.82187 7.11003 3.80884 7.05295 3.79828 6.96949C3.78799 6.88625 3.76183 6.8394 3.72029 6.82895C3.66814 6.81855 3.60559 6.77696 3.53274 6.70401C4.45978 5.22482 5.68371 4.06858 7.2046 3.23508C7.26705 3.22479 7.38159 3.21953 7.54824 3.21953C7.63148 3.22993 7.70969 3.25604 7.78253 3.29763C7.85548 3.33922 7.93106 3.39663 8.00905 3.46948C8.08731 3.54216 8.14718 3.59431 8.18878 3.62562C8.20963 3.56306 8.18363 3.46931 8.11073 3.34431C8.13142 3.28176 8.24608 3.21921 8.45442 3.15676C8.69386 3.12551 8.85027 3.1306 8.92311 3.17247C8.86072 3.07866 8.75663 2.94841 8.61073 2.78182L8.53263 2.85981C8.44923 2.78696 8.23064 2.82336 7.87639 2.96921C7.8557 2.9795 7.80354 3.00834 7.72014 3.05508C7.6369 3.10187 7.56898 3.1358 7.51704 3.1566C7.45449 3.17745 7.39205 3.18265 7.32949 3.17225C7.82943 2.90151 8.31914 2.68763 8.79839 2.53155C8.82937 2.55224 8.88158 2.59657 8.95453 2.66421C9.02737 2.73191 9.08467 2.78149 9.12637 2.81263C9.09512 2.79194 9.07422 2.80212 9.06382 2.84388C9.02223 2.96883 9.02223 3.07297 9.06382 3.15627C9.11581 3.22939 9.18619 3.27081 9.2748 3.28138C9.3634 3.29167 9.47007 3.28652 9.59506 3.26561C9.72006 3.24493 9.80352 3.23437 9.84517 3.23437L10.0015 3.25013C10.3347 3.28138 10.465 3.25013 10.3921 3.15627C10.4233 3.19814 10.4598 3.284 10.5014 3.41426C10.543 3.54451 10.59 3.63569 10.642 3.68779C10.6941 3.64592 10.7045 3.57308 10.6732 3.46893C10.642 3.36478 10.642 3.29167 10.6732 3.25007C10.6835 3.22939 10.7148 3.20831 10.767 3.18752C10.8191 3.16683 10.8789 3.14341 10.9467 3.11736C11.0144 3.0912 11.0587 3.07303 11.0797 3.06268C11.1421 3.02093 11.1004 2.94797 10.9546 2.84383C10.9337 2.83337 10.8895 2.81778 10.8219 2.79693C10.7542 2.7764 10.6942 2.75528 10.6422 2.73454C10.5902 2.71385 10.5355 2.68512 10.4782 2.64867C10.4209 2.61216 10.3948 2.57057 10.3999 2.52356C10.4051 2.47655 10.4339 2.41679 10.4859 2.34383C10.5484 2.2919 10.6501 2.27099 10.7906 2.28139C10.9311 2.29168 11.038 2.31767 11.1109 2.35938C11.3923 2.51568 11.4338 2.65655 11.236 2.78133C11.3403 2.79162 11.4653 2.83332 11.6111 2.90616C11.7568 2.97917 11.8141 3.05732 11.7829 3.14073C11.8663 2.98448 11.9495 2.90616 12.033 2.90616C12.085 2.91672 12.1347 2.9871 12.1814 3.1173C12.2282 3.24745 12.2568 3.31772 12.2671 3.32828C12.3506 3.44271 12.4334 3.46882 12.5173 3.40627C12.6005 3.34382 12.6866 3.2527 12.775 3.13284C12.8634 3.01315 12.9129 2.95848 12.9234 2.96888C12.8193 2.9274 12.8084 2.88564 12.8923 2.84394C13.0481 2.75019 13.189 2.72408 13.3141 2.76595C13.3451 2.78664 13.3871 2.83365 13.4388 2.90633C13.5322 3.0941 13.5167 3.18248 13.392 3.17208C13.4856 3.25549 13.5244 3.35975 13.5093 3.48458C13.4936 3.60958 13.4124 3.66693 13.2667 3.65643C13.2148 3.65643 13.139 3.63027 13.0399 3.57833C12.941 3.52634 12.8655 3.49777 12.8132 3.49246C12.7612 3.48704 12.6881 3.51578 12.5945 3.57833C12.5529 3.63049 12.4982 3.71909 12.4304 3.84398C12.3627 3.9692 12.3027 4.05758 12.2506 4.10957C12.0945 4.26582 11.8338 4.32323 11.4693 4.28142C11.5006 4.28142 11.4978 4.31267 11.4614 4.37522C11.4248 4.43767 11.3755 4.5081 11.313 4.58614C11.2504 4.66424 11.214 4.70852 11.2037 4.71891C11.1099 4.82306 11.0474 4.94292 11.0161 5.07831C11.0161 5.09916 11.0109 5.16954 11.0004 5.28918C10.9898 5.40903 10.9691 5.50032 10.9378 5.56271C11.0628 5.53146 11.1618 5.59418 11.2347 5.75026C11.2972 5.89617 11.2972 5.97426 11.2347 5.98477C11.5785 5.93289 11.8806 5.95358 12.1412 6.04733C12.5162 6.18272 12.73 6.31812 12.7821 6.45357C12.8443 6.35971 12.9953 6.3544 13.235 6.43781C13.3288 6.4898 13.4117 6.64627 13.4851 6.9065C13.5267 7.06264 13.5972 7.1982 13.696 7.31269C13.7952 7.42724 13.9017 7.45843 14.0165 7.40644L14.0632 7.37519C14.1049 7.3545 14.1386 7.33617 14.1646 7.32057C14.1908 7.30503 14.2193 7.28412 14.2504 7.25802C14.2819 7.23197 14.3002 7.20854 14.3051 7.18786C14.3099 7.16706 14.3024 7.14599 14.2819 7.1253C14.2088 7.06275 14.1541 6.97688 14.1178 6.86764C14.0817 6.75824 14.0895 6.66181 14.1414 6.57835C14.1725 6.53676 14.2559 6.4742 14.3912 6.3908C14.5268 6.30734 14.6102 6.2241 14.6412 6.14075C14.6834 6.00535 14.6309 5.89332 14.4852 5.80466C14.3393 5.71628 14.2663 5.63555 14.2663 5.56249C14.2663 5.51034 14.3001 5.44795 14.3677 5.37494C14.4357 5.3021 14.4644 5.23418 14.4537 5.17184C14.4537 5.14037 14.4353 5.07541 14.399 4.97641C14.3629 4.87724 14.3417 4.8044 14.3366 4.75755C14.3313 4.71065 14.355 4.65598 14.4068 4.59359C14.4795 4.55183 14.6514 4.55446 14.9222 4.60125C15.1931 4.64826 15.3703 4.69774 15.4538 4.74967C15.4852 4.77036 15.5529 4.80166 15.657 4.84348C15.7611 4.88485 15.8523 4.92912 15.9306 4.97619C16.0084 5.02298 16.0527 5.06709 16.063 5.10885H15.9851C16.0579 5.17157 16.1024 5.24425 16.1177 5.32771C16.1335 5.41133 16.0945 5.47367 16.0009 5.51548C16.063 5.50492 16.1467 5.52062 16.2509 5.56227C16.4176 5.62472 16.4228 5.68213 16.2666 5.73412C16.2976 5.72356 16.3419 5.71332 16.399 5.70281C16.4563 5.69242 16.5004 5.67671 16.5318 5.65602C16.5524 5.64551 16.5786 5.62745 16.6097 5.60129C16.6412 5.57524 16.6644 5.55954 16.6801 5.55456C16.6958 5.54941 16.7191 5.54399 16.7505 5.53879C16.7816 5.53365 16.8127 5.54153 16.8438 5.56222C16.8547 5.56222 16.8779 5.53611 16.9142 5.48412C16.9503 5.43218 16.9899 5.38003 17.0313 5.32804C17.0731 5.27605 17.1092 5.25005 17.1407 5.25005C17.1715 5.25005 17.2004 5.26286 17.2262 5.28891C17.2526 5.31507 17.273 5.34358 17.2888 5.37488C17.3045 5.40619 17.3199 5.44006 17.3356 5.47629C17.3513 5.51274 17.3641 5.54158 17.3746 5.56227C17.3952 5.61426 17.445 5.66916 17.5229 5.72624C17.6008 5.78337 17.6502 5.83821 17.6712 5.8902C17.6817 5.92151 17.7021 5.99966 17.7336 6.12482C17.7647 6.24982 17.8067 6.33569 17.8585 6.38248C17.9106 6.42949 17.9887 6.46846 18.0928 6.49965C18.1136 6.51021 18.1608 6.50491 18.2334 6.48422C18.3061 6.46326 18.3663 6.45806 18.413 6.46846C18.4602 6.47875 18.4834 6.52034 18.4834 6.59346C18.5458 6.5309 18.5769 6.48914 18.5769 6.46846C18.5876 6.60391 18.6211 6.71336 18.6788 6.79661C18.7361 6.87979 18.8271 6.91646 18.9522 6.9059L18.9208 7.24975C18.8897 7.30174 18.8116 7.34071 18.6863 7.36671C18.5612 7.39287 18.4833 7.41645 18.4518 7.43714C18.4207 7.44754 18.3451 7.51004 18.2252 7.62475C18.1053 7.73946 18.0562 7.80716 18.0769 7.82784C17.9001 7.62989 17.634 7.57259 17.2801 7.656C16.8844 7.7185 16.6133 7.781 16.4676 7.84355C16.3011 7.92701 16.1863 8.005 16.1238 8.07784C16.1133 8.08824 16.0955 8.12485 16.0693 8.18724C16.0432 8.24969 16.0172 8.3071 15.9913 8.35909C15.965 8.41108 15.9419 8.43713 15.9211 8.43713C15.9838 8.427 16.0539 8.37726 16.132 8.28887C16.2104 8.20027 16.2598 8.15101 16.2804 8.14045C16.551 7.96346 16.775 7.90091 16.9531 7.95421C17.1822 8.01676 17.2187 8.10017 17.0623 8.20432C17.0419 8.225 16.9868 8.23283 16.8985 8.22774C16.8101 8.2226 16.7501 8.225 16.7187 8.23562C16.8127 8.25631 16.8906 8.28504 16.9535 8.32127C17.0157 8.35772 17.0314 8.40725 17.0001 8.46969C17.1667 8.5635 17.1981 8.66764 17.094 8.78235C16.9584 8.91797 16.7973 8.97505 16.6097 8.9542C16.6411 8.9542 16.6411 8.97511 16.6097 9.0167L16.3437 9.18854C16.3231 9.19878 16.2553 9.22477 16.1407 9.26664C16.0261 9.30802 15.9478 9.35525 15.9062 9.40718C15.8751 9.44888 15.8594 9.51133 15.8594 9.59495C15.8594 9.67841 15.8542 9.74097 15.8437 9.78256C15.8334 9.82443 15.7916 9.8345 15.719 9.81381C15.6875 9.87626 15.5913 9.92578 15.4298 9.96201C15.2684 9.99846 15.1617 10.0531 15.1096 10.126C15.1717 10.2094 15.1669 10.2927 15.0938 10.3761C14.9687 10.4804 14.8593 10.4698 14.7657 10.3448C14.7137 10.3657 14.6745 10.4177 14.6484 10.5011C14.6226 10.5845 14.5833 10.6418 14.5315 10.673C14.6046 10.7876 14.5937 10.8712 14.5005 10.923C14.5106 10.923 14.5342 10.9335 14.5705 10.9543C14.6068 10.9751 14.6458 11.0011 14.6878 11.0324C14.7294 11.0637 14.7551 11.0794 14.7657 11.0794C14.7241 11.1729 14.6666 11.2198 14.5937 11.2198C14.6563 11.3865 14.5784 11.5689 14.3597 11.7667C14.3176 11.8083 14.2525 11.8499 14.1641 11.8917C14.0751 11.9333 13.9946 11.9671 13.9216 11.9932C13.8485 12.0193 13.8071 12.0375 13.7967 12.0479C13.6925 12.1418 13.6142 12.238 13.5624 12.3369C13.5105 12.436 13.5026 12.5323 13.5388 12.6261C13.5753 12.7201 13.6716 12.7823 13.8281 12.8138L13.8433 12.9387V13.2198L13.859 13.3449C13.8696 13.4178 13.8775 13.4829 13.8826 13.5404C13.8877 13.5978 13.8877 13.6704 13.8826 13.7591C13.8775 13.8475 13.854 13.8972 13.8124 13.9073C13.771 13.918 13.7137 13.9073 13.6406 13.876C13.5569 13.8345 13.4582 13.6053 13.3434 13.1887C13.3226 13.0846 13.2599 12.9598 13.1557 12.8137C13.1037 12.8658 13.0595 12.8995 13.0231 12.9151C12.9869 12.9308 12.9605 12.9336 12.9453 12.923C12.9296 12.9127 12.901 12.8891 12.8593 12.8527C12.8177 12.8164 12.7815 12.7876 12.7501 12.767C12.698 12.7359 12.607 12.7096 12.4764 12.6891C12.3465 12.6683 12.2653 12.642 12.2344 12.611C11.9842 12.7988 11.833 12.7516 11.781 12.4707C11.7603 12.5226 11.7628 12.5928 11.7889 12.6816C11.815 12.7702 11.828 12.8195 11.828 12.8299C11.7552 12.9655 11.6406 12.9756 11.4843 12.861C11.4218 12.7988 11.2785 12.791 11.0545 12.8377C10.8305 12.8844 10.6821 12.8923 10.6092 12.861C10.6198 12.861 10.6405 12.8765 10.6718 12.908C10.703 12.9284 10.7239 12.9441 10.7343 12.9546C10.7238 12.9965 10.7082 13.0275 10.6873 13.0483C10.6664 13.0689 10.6455 13.0768 10.6248 13.0719C10.6039 13.0667 10.5805 13.0667 10.5543 13.0719C10.5283 13.0768 10.5049 13.0846 10.484 13.0951C10.4424 13.1262 10.3904 13.1809 10.3278 13.259C10.2654 13.3371 10.2185 13.3866 10.1873 13.4071C10.2497 13.5738 10.2784 13.7016 10.2733 13.79C10.2678 13.8787 10.2524 14.0089 10.2262 14.1807C10.2001 14.3524 10.1871 14.4906 10.1871 14.595C10.1871 14.7612 10.2366 14.9545 10.3355 15.1729C10.4345 15.3917 10.5517 15.5426 10.6871 15.6261C10.7602 15.6677 10.8853 15.6936 11.0622 15.7039C11.2393 15.7145 11.3643 15.7039 11.4372 15.6728C11.4997 15.642 11.5464 15.6052 11.5777 15.5636C11.6089 15.522 11.6351 15.4617 11.6558 15.3839C11.6766 15.3059 11.6924 15.2512 11.7028 15.2202C11.7756 15.022 11.911 14.9179 12.1087 14.9074C12.2342 14.8969 12.3248 14.9104 12.3825 14.9464C12.4398 14.9829 12.4631 15.0323 12.4526 15.0949C12.4421 15.1572 12.4213 15.2224 12.3903 15.2902C12.3589 15.358 12.32 15.4333 12.273 15.5168C12.2264 15.6005 12.1976 15.6629 12.1875 15.7047C12.1667 15.788 12.1482 15.9051 12.1329 16.0565C12.1171 16.2074 12.104 16.2986 12.0935 16.33C12.1145 16.3402 12.1925 16.3454 12.3278 16.3454C12.3278 16.3248 12.3357 16.2907 12.3514 16.2439C12.3668 16.1971 12.3746 16.1684 12.3746 16.1581C12.4269 16.2417 12.5103 16.2881 12.6249 16.2986C12.7395 16.3091 12.823 16.2675 12.875 16.1737C12.896 16.205 12.9585 16.2833 13.0627 16.4084C13.1668 16.5331 13.2241 16.6372 13.2347 16.7207C13.2451 16.7627 13.2657 16.8301 13.2969 16.9242C13.3283 17.0178 13.3388 17.083 13.3283 17.1197C13.3179 17.1556 13.2657 17.1742 13.1721 17.1742C13.1305 17.1742 13.1044 17.1899 13.0942 17.221C13.0834 17.2524 13.0834 17.2912 13.0942 17.338C13.1047 17.3848 13.1178 17.4293 13.1332 17.4708C13.1487 17.5122 13.1695 17.5568 13.1954 17.6037C13.2219 17.6501 13.2347 17.6789 13.2347 17.6894C13.422 18.0329 13.6775 18.1267 14.0003 17.9707C14.0003 18.2727 13.9273 18.4393 13.7812 18.4704C13.6988 18.4911 13.6054 18.4385 13.5012 18.3138ZM13.7346 21.8438C13.714 21.7396 13.7035 21.6564 13.7046 21.5943C13.6937 21.5108 13.7305 21.3987 13.8136 21.2582C13.8969 21.1178 13.9385 21.0108 13.9385 20.938C13.7718 20.8964 13.7094 20.7608 13.7507 20.5317C13.7716 20.3754 13.9226 20.1671 14.2039 19.9067C14.402 19.7296 14.4642 19.4793 14.3915 19.1567C14.3601 19.0212 14.3338 18.8231 14.3132 18.5627C14.2926 18.3022 14.2716 18.12 14.2507 18.0159C14.2507 18.047 14.3001 18.0756 14.3994 18.1016C14.4983 18.1275 14.5582 18.1616 14.579 18.2028C14.5998 18.1719 14.6257 18.1144 14.6571 18.0312C14.6882 17.9477 14.7197 17.8854 14.7503 17.8435C14.7713 17.8123 14.8155 17.7733 14.8834 17.7263C14.9511 17.6795 14.9953 17.651 15.0161 17.6405C15.0366 17.6302 15.0837 17.5965 15.1564 17.539C15.2294 17.4817 15.2894 17.4377 15.3364 17.4064C15.3835 17.3752 15.4455 17.3518 15.5238 17.3364C15.6022 17.3207 15.6567 17.3439 15.6877 17.4064C15.74 17.469 15.7297 17.5653 15.6567 17.6956C15.5836 17.826 15.5836 17.9172 15.6567 17.9694C15.6673 17.938 15.6775 17.87 15.6877 17.7658C15.6984 17.6617 15.7297 17.5836 15.7816 17.5312C15.8441 17.469 15.9038 17.4323 15.9613 17.4221C16.0186 17.4113 16.0705 17.4191 16.1172 17.4456C16.1644 17.4716 16.2191 17.5076 16.2813 17.5547C16.3438 17.6015 16.4011 17.6303 16.4532 17.6405C16.6094 17.6926 16.797 17.8072 17.0158 17.9844C17.0053 17.9737 17.0053 17.9608 17.0158 17.945C17.0263 17.9297 17.0469 17.914 17.0784 17.8982C17.1095 17.8829 17.1379 17.8672 17.1642 17.8514C17.19 17.8359 17.2184 17.8234 17.2499 17.8127L17.2967 17.797C17.3694 17.797 17.4216 17.7919 17.4527 17.7812C17.4838 17.7709 17.5286 17.7812 17.5855 17.8127C17.6425 17.8438 17.6818 17.8672 17.7024 17.8829C17.7234 17.8982 17.7597 17.9269 17.8118 17.9687C17.8639 18.0102 17.9006 18.0417 17.9208 18.0623C17.9522 18.0829 18.0095 18.1196 18.0927 18.1717C18.1762 18.2237 18.2414 18.2653 18.2883 18.2964C18.3354 18.3274 18.377 18.3747 18.4129 18.4366C18.4493 18.4996 18.4628 18.5672 18.4523 18.6402C18.5149 18.6507 18.6396 18.6921 18.8273 18.7649C18.8587 18.7856 18.9235 18.8041 19.0228 18.8195C19.1217 18.8352 19.1868 18.8588 19.2181 18.8897C17.7088 20.4844 15.8803 21.4688 13.7346 21.8438Z" fill="#FFA734"/>
</svg>
